<svg xmlns="http://www.w3.org/2000/svg" viewBox="0 0 64 64" fill="none">
  <rect width="64" height="64" rx="16" fill="#0f131d"/>
  <rect x="1" y="1" width="62" height="62" rx="15" stroke="#00a7e1" stroke-opacity="0.3" stroke-width="2"/>
  <!-- Antennas -->
  <path d="M18 12V34M32 8V34M46 12V34" stroke="#7cd0ff" stroke-width="3" stroke-linecap="round"/>
  <!-- Router Base -->
  <rect x="10" y="34" width="44" height="18" rx="5" fill="#1c1f2a" stroke="#00a7e1" stroke-width="2"/>
  <!-- LED Indicators -->
  <circle cx="18" cy="43" r="2.5" fill="#4edea3"/>
  <circle cx="27" cy="43" r="2.5" fill="#00a7e1"/>
  <circle cx="36" cy="43" r="2.5" fill="#00a7e1"/>
  <circle cx="45" cy="43" r="2.5" fill="#ffb95f"/>
  <!-- Subtly pulsing signal arcs above middle antenna -->
  <path d="M26 14C28 12 30 11 32 11C34 11 36 12 38 14" stroke="#4edea3" stroke-width="2" stroke-linecap="round"/>
  <path d="M22 10C25 7 28.5 6 32 6C35.5 6 39 7 42 10" stroke="#00a7e1" stroke-width="2" stroke-linecap="round" stroke-opacity="0.7"/>
</svg>
